<svg width="61" height="82" viewBox="0 0 61 82" fill="none" xmlns="http://www.w3.org/2000/svg">
<circle cx="28" cy="14" r="12" stroke="black" stroke-width="4"/>
<circle cx="28" cy="14" r="6" fill="black" stroke="black" stroke-width="4"/>
<path d="M25.9974 31.8738V42.9314C25.9974 44.3677 25.4938 45.7587 24.5742 46.8621C22.4033 49.4672 18.5317 49.8192 15.9266 47.6483L11.9165 44.3065C10.6906 43.2849 9.14527 42.7255 7.54946 42.7255C6.39326 42.7255 5.3393 43.3879 4.83794 44.4298L4.68298 44.7518C4.09636 45.9708 4.27403 47.4198 5.13777 48.461L24.2952 71.554C27.3941 75.2895 31.9955 77.4509 36.8491 77.4509C47.6369 77.4509 56.3821 68.7057 56.3821 57.9178V40.5551C56.3821 39.3565 55.4104 38.3848 54.2118 38.3848C53.0132 38.3848 52.0415 39.3565 52.0415 40.5551V44.8958C52.0415 46.0944 51.0698 47.0661 49.8711 47.0661C48.6725 47.0661 47.7008 46.0944 47.7008 44.8958V36.2144C47.7008 35.0158 46.7291 34.0441 45.5304 34.0441C44.3318 34.0441 43.3601 35.0158 43.3601 36.2144V44.8958C43.3601 46.0944 42.3884 47.0661 41.1898 47.0661C39.9911 47.0661 39.0194 46.0944 39.0194 44.8958V31.8738C39.0194 30.6751 38.0477 29.7034 36.8491 29.7034C35.6504 29.7034 34.6787 30.6751 34.6787 31.8738V44.8958C34.6787 46.0944 33.707 47.0661 32.5084 47.0661C31.3097 47.0661 30.338 46.0944 30.338 44.8958V14.511C30.338 13.3124 29.3663 12.3407 28.1677 12.3407C26.9691 12.3407 25.9974 13.3124 25.9974 14.511V31.8738ZM21.6567 31.8738V14.511C21.6567 10.9151 24.5718 8 28.1677 8C31.7636 8 34.6787 10.9151 34.6787 14.511V25.7332C35.3576 25.4933 36.0881 25.3627 36.8491 25.3627C39.8517 25.3627 42.3796 27.3952 43.132 30.1594C43.8743 29.8651 44.6835 29.7034 45.5304 29.7034C48.533 29.7034 51.0609 31.7359 51.8134 34.5001C52.5556 34.2058 53.3648 34.0441 54.2118 34.0441C57.8077 34.0441 60.7228 36.9592 60.7228 40.5551V57.9178C60.7228 71.103 50.0342 81.7916 36.8491 81.7916C30.7039 81.7916 24.878 79.055 20.9545 74.3254L1.797 51.2325C-0.150391 48.885 -0.55097 45.6179 0.77163 42.8695L0.926587 42.5475C2.15117 40.0028 4.72545 38.3848 7.54946 38.3848C10.1607 38.3848 12.6893 39.3003 14.6953 40.9719L18.7054 44.3137C19.4688 44.9499 20.6034 44.8467 21.2396 44.0833C21.5091 43.7599 21.6567 43.3523 21.6567 42.9314V31.8738Z" fill="white"/>
<path d="M25.9974 42.9314V31.8738V14.511C25.9974 13.3124 26.9691 12.3407 28.1677 12.3407C29.3663 12.3407 30.338 13.3124 30.338 14.511V44.8958C30.338 46.0944 31.3097 47.0661 32.5084 47.0661C33.707 47.0661 34.6787 46.0944 34.6787 44.8958V31.8738C34.6787 30.6751 35.6504 29.7034 36.8491 29.7034C38.0477 29.7034 39.0194 30.6751 39.0194 31.8738V44.8958C39.0194 46.0944 39.9911 47.0661 41.1898 47.0661C42.3884 47.0661 43.3601 46.0944 43.3601 44.8958V36.2144C43.3601 35.0158 44.3318 34.0441 45.5304 34.0441C46.7291 34.0441 47.7008 35.0158 47.7008 36.2144V44.8958C47.7008 46.0944 48.6725 47.0661 49.8711 47.0661C51.0698 47.0661 52.0415 46.0944 52.0415 44.8958V40.5551C52.0415 39.3565 53.0132 38.3848 54.2118 38.3848C55.4104 38.3848 56.3821 39.3565 56.3821 40.5551V57.9178C56.3821 68.7057 47.6369 77.4509 36.8491 77.4509C31.9955 77.4509 27.3941 75.2895 24.2952 71.554L5.13777 48.461C4.27403 47.4198 4.09636 45.9708 4.68298 44.7518L4.83794 44.4298C5.3393 43.3879 6.39326 42.7255 7.54946 42.7255C9.14527 42.7255 10.6906 43.2849 11.9165 44.3065L15.9266 47.6483C18.5317 49.8192 22.4033 49.4672 24.5742 46.8621C25.4938 45.7587 25.9974 44.3677 25.9974 42.9314Z" fill="#131313"/>
</svg>
